0
SECTION
2
HEADER
9
$INSUNITS
70
4
9
$ACADVER
1
AC1014
9
$HANDSEED
5
FFFF
0
ENDSEC
0
SECTION
2
TABLES
0
TABLE
2
VPORT
5
8
100
AcDbSymbolTable
0
ENDTAB
0
TABLE
2
LTYPE
5
5
100
AcDbSymbolTable
0
LTYPE
5
14
100
AcDbSymbolTableRecord
100
AcDbLinetypeTableRecord
2
BYBLOCK
70
0
0
LTYPE
5
15
100
AcDbSymbolTableRecord
100
AcDbLinetypeTableRecord
2
BYLAYER
70
0
0
ENDTAB
0
TABLE
2
LAYER
5
2
100
AcDbSymbolTable
70
2
0
LAYER
5
50
100
AcDbSymbolTableRecord
100
AcDbLayerTableRecord
2
0
70
0
6
CONTINUOUS
0
ENDTAB
0
TABLE
2
STYLE
5
3
100
AcDbSymbolTable
70
1
0
STYLE
5
11
100
AcDbSymbolTableRecord
100
AcDbTextStyleTableRecord
2
STANDARD
70
0
0
ENDTAB
0
TABLE
2
VIEW
5
6
100
AcDbSymbolTable
70
0
0
ENDTAB
0
TABLE
2
UCS
5
7
100
AcDbSymbolTable
70
0
0
ENDTAB
0
TABLE
2
APPID
5
9
100
AcDbSymbolTable
70
2
0
APPID
5
12
100
AcDbSymbolTableRecord
100
AcDbRegAppTableRecord
2
ACAD
70
0
0
ENDTAB
0
TABLE
2
DIMSTYLE
5
A
100
AcDbSymbolTable
70
1
0
ENDTAB
0
TABLE
2
BLOCK_RECORD
5
1
100
AcDbSymbolTable
70
1
0
BLOCK_RECORD
5
1F
100
AcDbSymbolTableRecord
100
AcDbBlockTableRecord
2
*MODEL_SPACE
0
BLOCK_RECORD
5
1B
100
AcDbSymbolTableRecord
100
AcDbBlockTableRecord
2
*PAPER_SPACE
0
ENDTAB
0
ENDSEC
0
SECTION
2
BLOCKS
0
BLOCK
5
20
100
AcDbEntity
100
AcDbBlockBegin
2
*MODEL_SPACE
0
ENDBLK
5
21
100
AcDbEntity
100
AcDbBlockEnd
0
BLOCK
5
1C
100
AcDbEntity
100
AcDbBlockBegin
2
*PAPER_SPACE
0
ENDBLK
5
1D
100
AcDbEntity
100
AcDbBlockEnd
0
ENDSEC
0
SECTION
2
ENTITIES
0
LWPOLYLINE
5
100
100
AcDbEntity
8
0
100
AcDbPolyline
90
20
70
1
43
0.0
10
-315.31799999999998
20
-78.974999999999952
10
-315.31799999999998
20
-78.474999999999952
42
0.41421356237312623
10
-315.81799999999998
20
-77.974999999999966
10
-321.81800000000004
20
-77.974999999999994
42
0.41421356237313667
10
-322.3180000000001
20
-78.474999999999952
10
-322.31799999999998
20
-78.974999999999952
10
-322.90500000000014
20
-78.974999999999952
42
0.4142135623731783
10
-323.40499999999997
20
-79.474999999999952
10
-323.40499999999997
20
-92.474999999999994
42
0.41421356237299095
10
-322.90500000000003
20
-92.974999999999937
10
-290.85500000000008
20
-92.974999999999994
42
0.41421356237306384
10
-290.35500000000008
20
-92.475000000000009
10
-290.35500000000013
20
-79.474999999999966
42
0.41421356237317308
10
-290.85500000000013
20
-78.974999999999994
10
-291.44200000000006
20
-78.974999999999966
10
-291.44200000000006
20
-78.474999999999966
42
0.41421356237307422
10
-291.94200000000012
20
-77.974999999999994
10
-297.94200000000006
20
-77.975000000000009
42
0.4142135623730846
10
-298.44200000000006
20
-78.474999999999952
10
-298.44200000000006
20
-78.974999999999952
0
LWPOLYLINE
5
101
100
AcDbEntity
8
0
100
AcDbPolyline
90
8
70
1
43
0.0
10
-186.1161859551552
20
-48.73619806197474
42
-0.4142135623730685
10
-185.73106800019713
20
-48.143168416198961
10
-173.01514919065767
20
-45.440316435568093
42
-0.41421356237304707
10
-172.42211954488192
20
-45.825434390526105
10
-169.71926756425103
20
-58.541353200065572
42
-0.41421356237315027
10
-170.10438551920913
20
-59.134382845841351
10
-182.82030432874848
20
-61.837234826472283
42
-0.41421356237311141
10
-183.41333397452428
20
-61.452116871514228
0
LWPOLYLINE
5
102
100
AcDbEntity
8
0
100
AcDbPolyline
90
8
70
1
43
0.0
10
-210.10603593604532
20
-73.310986421071163
42
-0.41421356237300205
10
-209.72091798108727
20
-72.717956775295434
10
-197.00499917154775
20
-70.015104794664509
42
-0.41421356237314194
10
-196.41196952577207
20
-70.400222749622571
10
-193.70911754514114
20
-83.116141559162088
42
-0.41421356237300128
10
-194.09423550009919
20
-83.709171204937803
10
-206.81015430963865
20
-86.412023185568728
42
-0.41421356237304419
10
-207.40318395541451
20
-86.026905230610652
0
LWPOLYLINE
5
103
100
AcDbEntity
8
0
100
AcDbPolyline
90
8
70
1
43
0.0
10
-67.075000000000045
20
-79.475000000000023
10
-67.075000000000045
20
-92.475000000000009
42
0.41421356237313145
10
-66.575000000000045
20
-92.975000000000009
10
-53.575000000000053
20
-92.975000000000023
42
0.41421356237309503
10
-53.075000000000038
20
-92.475000000000023
10
-53.075000000000038
20
-79.475000000000023
42
0.41421356237309503
10
-53.575000000000031
20
-78.975000000000023
10
-66.575000000000031
20
-78.975000000000009
42
0.41421356237311063
0
LWPOLYLINE
5
104
100
AcDbEntity
8
0
100
AcDbPolyline
90
8
70
1
43
0.0
10
-212.34282933912016
20
-87.076859269240373
42
-0.41421356237300933
10
-212.72794729407818
20
-87.669888915016102
10
-225.44386610361772
20
-90.372740895646984
42
-0.41421356237323165
10
-226.03689574939349
20
-89.987622940688951
10
-228.73974773002445
20
-77.271704131149491
42
-0.41421356237312046
10
-228.35462977506634
20
-76.678674485373733
10
-215.63871096552688
20
-73.975822504742837
42
-0.41421356237311463
10
-215.04568131975108
20
-74.360940459700885
0
LWPOLYLINE
5
105
100
AcDbEntity
8
0
100
AcDbPolyline
90
8
70
1
43
0.0
10
-123.3443189300703
20
-72.38094064964946
42
-0.41421356237312773
10
-122.75128928429451
20
-71.995822694691455
10
-110.03537012970338
20
-74.698674495058313
42
-0.41421356237311541
10
-109.65025212970339
20
-75.291704495058354
10
-112.35310435214583
20
-88.007623447776723
42
-0.41421349810826924
10
-112.94613397511228
20
-88.392741295425253
10
-125.66205297511226
20
-85.68988929542526
42
-0.41421356237310525
10
-126.04717093007028
20
-85.09685964964946
0
ARC
5
106
100
AcDbEntity
8
0
100
AcDbCircle
10
-94.208466335724367
20
-91.864385205136628
30
0
40
0.50000000000001321
210
0
220
0
230
1
100
AcDbArc
50
258.00000000000091
51
347.99998742851972
0
LINE
5
107
100
AcDbEntity
8
0
100
AcDbLine
10
-94.312422181133243
20
-92.353459005503552
30
0
11
-107.02834133572436
21
-89.650607205136637
31
0
0
ARC
5
108
100
AcDbEntity
8
0
100
AcDbCircle
10
-106.92438533572442
20
-89.161533205136635
30
0
40
0.50000022741193784
210
0
220
0
230
1
100
AcDbArc
50
167.99998742852355
51
257.99998742853023
0
LINE
5
109
100
AcDbEntity
8
0
100
AcDbLine
10
-107.41345933572441
20
-89.057577205136639
30
0
11
-104.71060733572438
21
-76.341658205136625
31
0
0
ARC
5
110
100
AcDbEntity
8
0
100
AcDbCircle
10
-104.22153333572439
20
-76.445614205136636
30
0
40
0.49999999999998718
210
0
220
-0
230
1
100
AcDbArc
50
78.000000000000213
51
167.99998742852199
0
LINE
5
111
100
AcDbEntity
8
0
100
AcDbLine
10
-104.11757749031551
20
-75.95654040476974
30
0
11
-91.401658383006023
21
-78.659392427579093
31
0
0
ARC
5
112
100
AcDbEntity
8
0
100
AcDbCircle
10
-91.50561433572436
20
-79.148466205136629
30
0
40
0.49999999999999589
210
0
220
0
230
1
100
AcDbArc
50
-11.999999999999762
51
77.999987428524193
0
LINE
5
113
100
AcDbEntity
8
0
100
AcDbLine
10
-91.016540535357464
20
-79.252422050545505
30
0
11
-93.719392558166817
21
-91.968341157855008
31
0
0
LWPOLYLINE
5
114
100
AcDbEntity
8
0
100
AcDbPolyline
90
8
70
1
43
0.0
10
-123.76309040370626
20
-27.155590290566508
42
-0.41421356237310325
10
-124.35612004948199
20
-27.540708245524538
10
-137.07203885902146
20
-24.837856264893642
42
-0.41421356237310886
10
-137.45715681397951
20
-24.244826619117873
10
-134.75430483334861
20
-11.528907809578381
42
-0.4142135623731048
10
-134.16127518757287
20
-11.14378985462035
10
-121.44535637803337
20
-13.846641835251223
42
-0.41421356237309204
10
-121.06023842307535
20
-14.439671481027027
0
LWPOLYLINE
5
115
100
AcDbEntity
8
0
100
AcDbPolyline
90
8
70
1
43
0.0
10
-25.59700000000003
20
-20.824999999999989
42
-0.41421356237309503
10
-25.09700000000003
20
-21.324999999999985
10
-25.09700000000003
20
-35.324999999999989
42
-0.41421356237309764
10
-25.59700000000003
20
-35.824999999999989
10
-31.59700000000003
20
-35.824999999999989
42
-0.4142135623730846
10
-32.097000000000023
20
-35.324999999999989
10
-32.097000000000037
20
-21.324999999999985
42
-0.41421356237309243
10
-31.59700000000003
20
-20.824999999999989
0
LWPOLYLINE
5
116
100
AcDbEntity
8
0
100
AcDbPolyline
90
8
70
1
43
0.0
10
-196.97212501680303
20
-44.858538543684475
10
-199.67497699743393
20
-32.142619734145029
42
0.41421356237309553
10
-200.26800664320973
20
-31.757501779186995
10
-212.98392545274922
20
-34.460353759817863
42
0.4142135623730685
10
-213.3690434077073
20
-35.053383405593635
10
-210.6661914270764
20
-47.769302215133102
42
0.4142135623731012
10
-210.07316178130054
20
-48.154420170091143
10
-197.35724297176117
20
-45.451568189460261
42
0.41421356237302054
0
LWPOLYLINE
5
117
100
AcDbEntity
8
0
100
AcDbPolyline
90
8
70
1
43
0.0
10
-194.73533161372839
20
-31.092665695515322
10
-192.03247963309741
20
-43.808584505054796
42
0.41421356237317969
10
-191.43944998732164
20
-44.193702460012815
10
-178.72353117778215
20
-41.490850479381962
42
0.41421356237308998
10
-178.3384132228241
20
-40.897820833606175
10
-181.041265203455
20
-28.181902024066716
42
0.41421356237310086
10
-181.63429484923083
20
-27.796784069108725
10
-194.35021365877034
20
-30.49963604973955
42
0.41421356237315177
0
LWPOLYLINE
5
118
100
AcDbEntity
8
0
100
AcDbPolyline
90
14
70
1
43
0.0
10
-297.40699999999998
20
-20.824999999999932
42
-0.41421356237314444
10
-296.90699999999998
20
-21.324999999999953
10
-296.90700000000004
20
-21.824999999999953
10
-296.31999999999999
20
-21.824999999999935
42
-0.41421356237314444
10
-295.81999999999999
20
-22.324999999999953
10
-295.81999999999999
20
-35.32499999999996
42
-0.4142135623730378
10
-296.31999999999999
20
-35.82499999999996
10
-318.84499999999997
20
-35.824999999999974
42
-0.41421356237313928
10
-319.34500000000003
20
-35.32499999999996
10
-319.34500000000003
20
-22.32499999999995
42
-0.41421356237304302
10
-318.84499999999997
20
-21.824999999999953
10
-303.90699999999998
20
-21.824999999999953
10
-303.90699999999993
20
-21.324999999999953
42
-0.41421356237302737
10
-303.40699999999998
20
-20.824999999999957
0
CIRCLE
5
119
100
AcDbEntity
8
0
100
AcDbCircle
10
-128.01274861921752
20
-91.356859318107055
30
0
40
1.7500000000000071
210
0
220
-0
230
1
0
CIRCLE
5
120
100
AcDbEntity
8
0
100
AcDbCircle
10
-320.78375000000005
20
-100.89499999999985
30
0
40
1.7499999999999716
210
0
220
-0
230
1
0
LWPOLYLINE
5
121
100
AcDbEntity
8
0
100
AcDbPolyline
90
8
70
1
43
0.0
10
-16.775000000000038
20
-43.515000000000015
42
-0.41421356237309764
10
-16.275000000000034
20
-43.015000000000015
10
-3.2750000000000279
20
-43.015000000000015
42
-0.41421356237309825
10
-2.775000000000027
20
-43.515000000000015
10
-2.7750000000000314
20
-56.515000000000001
42
-0.41421356237309798
10
-3.2750000000000346
20
-57.015000000000001
10
-16.275000000000034
20
-57.015000000000001
42
-0.41421356237309631
10
-16.775000000000034
20
-56.515000000000001
0
LWPOLYLINE
5
122
100
AcDbEntity
8
0
100
AcDbPolyline
90
8
70
1
43
0.0
10
-327.57059999999996
20
-3.2749999999999591
10
-327.57059999999996
20
-16.274999999999959
42
0.41421356237294543
10
-327.07060000000013
20
-16.774999999999967
10
-314.07060000000007
20
-16.774999999999963
42
0.41421356237300661
10
-313.57060000000013
20
-16.274999999999963
10
-313.57060000000007
20
-3.2749999999999613
42
0.41421356237312884
10
-314.07060000000007
20
-2.7749999999999719
10
-327.07060000000007
20
-2.7749999999999595
42
0.4142135623733838
0
CIRCLE
5
123
100
AcDbEntity
8
0
100
AcDbCircle
10
-121.14151758024931
20
13.010318991137149
30
0
40
1.7499999999999538
210
0
220
-0
230
1
0
LWPOLYLINE
5
124
100
AcDbEntity
8
0
100
AcDbPolyline
90
8
70
1
43
0.0
10
-28.175000000000043
20
-54.375
42
-0.41421356237308721
10
-28.675000000000036
20
-54.875000000000007
10
-46.437500000000043
20
-54.875000000000007
42
-0.41421356237308982
10
-46.937500000000043
20
-54.375
10
-46.937500000000043
20
-41.374999999999986
42
-0.41421356237309503
10
-46.437500000000043
20
-40.874999999999986
10
-28.675000000000033
20
-40.874999999999986
42
-0.41421356237310025
10
-28.175000000000043
20
-41.374999999999986
0
LWPOLYLINE
5
125
100
AcDbEntity
8
0
100
AcDbPolyline
90
8
70
1
43
0.0
10
-228.91628457259475
20
-57.32246956580304
10
-241.63220338213421
20
-60.025321546433929
42
0.4142135623730685
10
-242.01732133709228
20
-60.618351192209701
10
-239.3144693564613
20
-73.334270001749161
42
0.41421356237309503
10
-238.72143971068564
20
-73.719387956707195
10
-226.00552090114607
20
-71.016535976076284
42
0.41421356237303797
10
-225.62040294618811
20
-70.423506330300526
10
-228.32325492681903
20
-57.707587520761052
42
0.41421356237303908
0
LWPOLYLINE
5
126
100
AcDbEntity
8
0
100
AcDbPolyline
90
8
70
1
43
0.0
10
-81.679392558166782
20
-15.088341157854989
42
-0.41421349810831959
10
-82.272422181133209
20
-15.473459005503534
10
-94.988341181133237
20
-12.770607005503535
42
-0.41421356237308704
10
-95.37345913609127
20
-12.177577359727739
10
-92.670607335724355
20
0.53834179486337608
42
-0.41421356237309642
10
-92.077577335724357
20
0.92345979486336027
10
-79.361658383006016
20
-1.7793924275790887
42
-0.41421349810832775
10
-78.976540535357486
20
-2.3724220505455085
0
CIRCLE
5
127
100
AcDbEntity
8
0
100
AcDbCircle
10
-320.78375000000017
20
3.0049999999999994
30
0
40
1.7500000000000426
210
0
220
-0
230
1
0
LWPOLYLINE
5
128
100
AcDbEntity
8
0
100
AcDbPolyline
90
8
70
1
43
0.0
10
-71.935000000000031
20
-73.924999999999983
42
-0.41421356237309503
10
-72.435000000000031
20
-73.424999999999983
10
-72.435000000000031
20
-60.425000000000011
42
-0.41421356237311585
10
-71.935000000000016
20
-59.925000000000011
10
-58.935000000000024
20
-59.925000000000011
42
-0.41421356237309503
10
-58.435000000000024
20
-60.425000000000011
10
-58.435000000000024
20
-73.424999999999997
42
-0.41421356237309503
10
-58.935000000000024
20
-73.924999999999997
0
LWPOLYLINE
5
129
100
AcDbEntity
8
0
100
AcDbPolyline
90
8
70
1
43
0.0
10
-191.06902346861415
20
-6.1818653950945492
42
-0.41421298938766909
10
-191.66205283745592
20
-5.796748283628931
10
-194.57281663408824
20
7.8973187595981358
42
-0.414213498108227
10
-194.18769867315967
20
8.4903483089996072
10
-188.31881376254788
20
9.7378187295379313
42
-0.4142136266378928
10
-187.72578381330351
20
9.3527005089482245
10
-184.81501952893717
20
-4.3413652180511795
42
-0.41421349810827651
10
-185.20013748986571
20
-4.9343947674527051
0
LWPOLYLINE
5
130
100
AcDbEntity
8
0
100
AcDbPolyline
90
8
70
1
43
0.0
10
-220.08772791670651
20
-69.75867024662891
10
-207.37180910716705
20
-67.055818265997956
42
0.41421356237315426
10
-206.98669115220909
20
-66.462788620222184
10
-209.6895431328399
20
-53.746869810682739
42
0.41421356237305329
10
-210.2825727786157
20
-53.361751855724691
10
-222.99849158815522
20
-56.064603836355609
42
0.41421356237310009
10
-223.38360954311324
20
-56.657633482131374
10
-220.68075756248234
20
-69.373552291670833
42
0.41421356237304924
0
ARC
5
131
100
AcDbEntity
8
0
100
AcDbCircle
10
-112.65738223570607
20
3.2497938654949232
30
0
40
0.50000000000036737
210
0
220
-0
230
1
100
AcDbArc
50
78.000000000001023
51
81.254148515419629
0
LINE
5
132
100
AcDbEntity
8
0
100
AcDbLine
10
-112.55342639029712
20
3.7388676658621871
30
0
11
-110.22421323570605
21
3.2437768654952848
31
0
0
LINE
5
133
100
AcDbEntity
8
0
100
AcDbLine
10
-110.22421323570605
20
3.2437768654952848
30
0
11
-106.68454028298768
21
2.4913976430528404
31
0
0
ARC
5
134
100
AcDbEntity
8
0
100
AcDbCircle
10
-106.78849623523504
20
2.0023238677044164
30
0
40
0.49999999774121651
210
0
220
-0
230
1
100
AcDbArc
50
77.891290999668016
51
77.999987428682729
0
LINE
5
135
100
AcDbEntity
8
0
100
AcDbLine
10
-106.68361264358495
20
2.4911995471401935
30
0
11
-104.35532723570603
21
1.9963068654952831
31
0
0
ARC
5
136
100
AcDbEntity
8
0
100
AcDbCircle
10
-104.459283235706
20
1.5072328654952991
30
0
40
0.49999999999996719
210
0
220
0
230
1
100
AcDbArc
50
-12.000000000004089
51
77.999987428526651
0
LINE
5
137
100
AcDbEntity
8
0
100
AcDbLine
10
-103.97020943533914
20
1.4032770200863933
30
0
11
-106.88097345814847
21
-12.290789087223061
31
0
0
ARC
5
138
100
AcDbEntity
8
0
100
AcDbCircle
10
-107.37004723570604
20
-12.18683313450474
30
0
40
0.49999999999998274
210
0
220
0
230
1
100
AcDbArc
50
258.00009951597241
51
347.99998742852665
0
LINE
5
139
100
AcDbEntity
8
0
100
AcDbLine
10
-107.47400223165158
20
-12.675907115429858
30
0
11
-109.80321523570602
21
-12.180816134504722
31
0
0
LINE
5
140
100
AcDbEntity
8
0
100
AcDbLine
10
-109.80321523570602
20
-12.180816134504722
30
0
11
-113.34288818842435
21
-11.428436912062281
31
0
0
ARC
5
141
100
AcDbEntity
8
0
100
AcDbCircle
10
-113.23893223516302
20
-10.939363131957862
30
0
40
0.50000000260409572
210
0
220
0
230
1
100
AcDbArc
50
257.89129100037957
51
257.99998742834043
0
LINE
5
142
100
AcDbEntity
8
0
100
AcDbLine
10
-113.34381582782711
20
-11.42823881614963
30
0
11
-115.6721010811149
21
-10.933345934871618
31
0
0
ARC
5
143
100
AcDbEntity
8
0
100
AcDbCircle
10
-115.56814523570601
20
-10.444272134504713
30
0
40
0.5000000000000141
210
0
220
0
230
1
100
AcDbArc
50
167.99999999999997
51
257.99999999999881
0
LINE
5
144
100
AcDbEntity
8
0
100
AcDbLine
10
-116.05721903607292
20
-10.340316289095831
30
0
11
-115.95326323570603
21
-9.8512441345047144
31
0
0
LINE
5
145
100
AcDbEntity
8
0
100
AcDbLine
10
-115.95326323570603
20
-9.8512441345047144
30
0
11
-117.84891323570604
21
-9.448310134504716
31
0
0
LINE
5
146
100
AcDbEntity
8
0
100
AcDbLine
10
-117.84891323570604
20
-9.448310134504716
30
0
11
-128.23561939179325
21
-7.2405488688347983
31
0
0
ARC
5
147
100
AcDbEntity
8
0
100
AcDbCircle
10
-128.13166323641144
20
-6.751475137804154
30
0
40
0.49999999662600297
210
0
220
0
230
1
100
AcDbArc
50
257.89129099972183
51
257.99996360399075
0
LINE
5
148
100
AcDbEntity
8
0
100
AcDbLine
10
-128.23654682782714
20
-7.2403508161496308
30
0
11
-130.13126923570604
21
-6.8376151345047127
31
0
0
LINE
5
149
100
AcDbEntity
8
0
100
AcDbLine
10
-130.13126923570604
20
-6.8376151345047127
30
0
11
-130.23522525478091
21
-7.3266891304502666
31
0
0
ARC
5
150
100
AcDbEntity
8
0
100
AcDbCircle
10
-130.72429923570604
20
-7.222734134504714
30
0
40
0.50000000000000189
210
0
220
0
230
1
100
AcDbArc
50
258.00000000000369
51
348.00009951597156
0
LINE
5
151
100
AcDbEntity
8
0
100
AcDbLine
10
-130.82825508111489
20
-7.7118079348716231
30
0
11
-133.15746823570601
21
-7.2167171345047167
31
0
0
LINE
5
152
100
AcDbEntity
8
0
100
AcDbLine
10
-133.15746823570601
20
-7.2167171345047167
30
0
11
-136.69714018842436
21
-6.4643369120622722
31
0
0
ARC
5
153
100
AcDbEntity
8
0
100
AcDbCircle
10
-136.59318423487258
20
-5.9752631305949144
30
0
40
0.50000000399764288
210
0
220
0
230
1
100
AcDbArc
50
257.89129100059967
51
257.99998742825755
0
LINE
5
154
100
AcDbEntity
8
0
100
AcDbLine
10
-136.69806782782712
20
-6.4641388161496218
30
0
11
-139.02635323570598
21
-5.9692471345047124
31
0
0
ARC
5
155
100
AcDbEntity
8
0
100
AcDbCircle
10
-138.92239723570609
20
-5.4801731345047164
30
0
40
0.49999999999998168
210
0
220
0
230
1
100
AcDbArc
50
167.99999999999784
51
257.99998742853489
0
LINE
5
156
100
AcDbEntity
8
0
100
AcDbLine
10
-139.41147103607295
20
-5.3762172890958251
30
0
11
-136.50070823570604
21
8.3178488654952911
31
0
0
ARC
5
157
100
AcDbEntity
8
0
100
AcDbCircle
10
-136.01163423570603
20
8.2138928654952785
30
0
40
0.50000000000000622
210
0
220
-0
230
1
100
AcDbArc
50
78.000000000003823
51
167.99998742852245
0
LINE
5
158
100
AcDbEntity
8
0
100
AcDbLine
10
-135.90767839029718
20
8.702966665862192
30
0
11
-133.57846523570595
21
8.2078768654952903
31
0
0
LINE
5
159
100
AcDbEntity
8
0
100
AcDbLine
10
-133.57846523570595
20
8.2078768654952903
30
0
11
-130.03879228298766
21
7.4554966430528511
31
0
0
ARC
5
160
100
AcDbEntity
8
0
100
AcDbCircle
10
-130.14274823461386
20
6.9664228706072651
30
0
40
0.4999999947726631
210
0
220
-0
230
1
100
AcDbArc
50
77.891364994396895
51
77.9999874291466
0
LINE
5
161
100
AcDbEntity
8
0
100
AcDbLine
10
-130.03786527494586
20
7.4552986825922183
30
0
11
-127.70957939029715
21
6.9604066658621866
31
0
0
ARC
5
162
100
AcDbEntity
8
0
100
AcDbCircle
10
-127.81353523570598
20
6.471332865495409
30
0
40
0.49999999999986577
210
0
220
-0
230
1
100
AcDbArc
50
74.747617382391297
51
78.000000000002188
0
ARC
5
163
100
AcDbEntity
8
0
100
AcDbCircle
10
-127.75802423570666
20
6.4595348654920572
30
0
40
0.50000000000328959
210
0
220
-0
230
1
100
AcDbArc
50
78.00000000000729
51
81.254288256390012
0
LINE
5
164
100
AcDbEntity
8
0
100
AcDbLine
10
-127.65406839029716
20
6.9486086658621913
30
0
11
-125.32485523570602
21
6.4535178654952832
31
0
0
LINE
5
165
100
AcDbEntity
8
0
100
AcDbLine
10
-125.32485523570602
20
6.4535178654952832
30
0
11
-114.93814939029717
21
4.2457566658621877
31
0
0
ARC
5
166
100
AcDbEntity
8
0
100
AcDbCircle
10
-115.04210523632743
20
3.7566828625838604
30
0
40
0.50000000297699621
210
0
220
-0
230
1
100
AcDbArc
50
77.891291000360241
51
77.999999999715513
0
LINE
5
167
100
AcDbEntity
8
0
100
AcDbLine
10
-114.93722164358495
20
4.2455585471401953
30
0
11
-112.60893723976048
21
3.7506658464204263
31
0
0
ARC
5
168
100
AcDbEntity
8
0
100
AcDbCircle
10
-112.71289223570662
20
3.2615918654923877
30
0
40
0.50000013059482273
210
0
220
-0
230
1
100
AcDbArc
50
74.747592435717849
51
78.000099515975123
0
LWPOLYLINE
5
169
100
AcDbEntity
8
0
100
AcDbPolyline
90
8
70
1
43
0.0
10
-72.635000000000048
20
-54.875000000000007
42
-0.41421356237308982
10
-73.135000000000034
20
-54.375
10
-73.135000000000034
20
-41.374999999999986
42
-0.41421356237309503
10
-72.635000000000048
20
-40.874999999999986
10
-59.635000000000026
20
-40.874999999999986
42
-0.41421356237309503
10
-59.135000000000026
20
-41.374999999999986
10
-59.135000000000026
20
-54.375
42
-0.41421356237310025
10
-59.635000000000026
20
-54.875000000000007
0
LWPOLYLINE
5
170
100
AcDbEntity
8
0
100
AcDbPolyline
90
8
70
1
43
0.0
10
-319.43500000000006
20
-54.874999999999936
42
-0.41421356237315227
10
-319.93500000000006
20
-54.374999999999972
10
-319.93500000000006
20
-41.374999999999957
42
-0.41421356237302737
10
-319.43500000000006
20
-40.874999999999957
10
-306.43500000000006
20
-40.874999999999943
42
-0.41421356237314183
10
-305.93500000000006
20
-41.374999999999957
10
-305.93500000000006
20
-54.374999999999972
42
-0.41421356237313667
10
-306.43500000000006
20
-54.874999999999972
0
LWPOLYLINE
5
171
100
AcDbEntity
8
0
100
AcDbPolyline
90
8
70
1
43
0.0
10
-34.625000000000014
20
-73.424999999999997
42
-0.41421356237309503
10
-35.125000000000014
20
-73.924999999999997
10
-48.125000000000036
20
-73.924999999999997
42
-0.41421356237309503
10
-48.625000000000036
20
-73.424999999999997
10
-48.625000000000036
20
-60.425000000000011
42
-0.41421356237309503
10
-48.125000000000036
20
-59.925000000000011
10
-35.125000000000014
20
-59.925000000000011
42
-0.41421356237309503
10
-34.625000000000014
20
-60.425000000000011
0
LWPOLYLINE
5
172
100
AcDbEntity
8
0
100
AcDbPolyline
90
8
70
1
43
0.0
10
-72.21500000000006
20
-81.114999999999995
42
-0.41421356237307944
10
-71.71500000000006
20
-81.614999999999981
10
-71.715000000000046
20
-94.615000000000009
42
-0.41421356237310025
10
-72.21500000000006
20
-95.115000000000009
10
-85.21500000000006
20
-95.115000000000038
42
-0.41421356237312623
10
-85.715000000000117
20
-94.615000000000009
10
-85.715000000000089
20
-81.614999999999981
42
-0.41421356237304302
10
-85.21500000000006
20
-81.114999999999981
0
LWPOLYLINE
5
173
100
AcDbEntity
8
0
100
AcDbPolyline
90
8
70
1
43
0.0
10
-309.315
20
-59.924999999999983
42
-0.41421356237309503
10
-308.81500000000005
20
-60.424999999999983
10
-308.81500000000005
20
-73.424999999999955
42
-0.41421356237293894
10
-309.31499999999994
20
-73.924999999999955
10
-322.31499999999994
20
-73.924999999999898
42
-0.41421356237307422
10
-322.81500000000017
20
-73.424999999999955
10
-322.81500000000017
20
-60.424999999999969
42
-0.4142135623731783
10
-322.31500000000005
20
-59.925000000000004
0
LWPOLYLINE
5
174
100
AcDbEntity
8
0
100
AcDbPolyline
90
8
70
1
43
0.0
10
-247.81500000000008
20
-60.985000000000007
42
-0.41421356237313145
10
-247.31500000000008
20
-61.484999999999999
10
-247.31500000000008
20
-74.484999999999985
42
-0.41421356237300661
10
-247.81500000000008
20
-74.984999999999985
10
-260.81500000000005
20
-74.984999999999999
42
-0.41421356237313667
10
-261.31500000000005
20
-74.484999999999985
10
-261.31500000000005
20
-61.484999999999999
42
-0.41421356237300661
10
-260.81500000000005
20
-60.985000000000007
0
LWPOLYLINE
5
175
100
AcDbEntity
8
0
100
AcDbPolyline
90
8
70
1
43
0.0
10
-48.973000000000027
20
-35.324999999999989
42
-0.4142135623730846
10
-49.473000000000027
20
-35.824999999999989
10
-55.473000000000035
20
-35.825000000000003
42
-0.41421356237309243
10
-55.973000000000035
20
-35.324999999999989
10
-55.973000000000027
20
-21.324999999999982
42
-0.41421356237312884
10
-55.473000000000013
20
-20.824999999999982
10
-49.47300000000002
20
-20.824999999999982
42
-0.41421356237307944
10
-48.973000000000027
20
-21.324999999999982
0
ARC
5
176
100
AcDbEntity
8
0
100
AcDbCircle
10
-90.943959269517478
20
-59.792261135609131
30
0
40
0.50000022741192918
210
0
220
-0
230
1
100
AcDbArc
50
77.999987428524989
51
167.99998742852324
0
LINE
5
177
100
AcDbEntity
8
0
100
AcDbLine
10
-90.840003269517496
20
-59.30318713560915
30
0
11
-78.124084424108631
21
-62.006039335242264
31
0
0
ARC
5
178
100
AcDbEntity
8
0
100
AcDbCircle
10
-78.228040269517521
20
-62.495113135609152
30
0
40
0.49999999999999772
210
0
220
0
230
1
100
AcDbArc
50
-12.000000000000222
51
77.999999999998465
0
LINE
5
179
100
AcDbEntity
8
0
100
AcDbLine
10
-77.738966469150611
20
-62.599068981018036
30
0
11
-80.441818269517483
21
-75.314988135609141
31
0
0
ARC
5
180
100
AcDbEntity
8
0
100
AcDbCircle
10
-80.930892269517486
20
-75.211032135609173
30
0
40
0.50000000000000455
210
0
220
0
230
1
100
AcDbArc
50
258.00000000000023
51
347.99998742852711
0
LINE
5
181
100
AcDbEntity
8
0
100
AcDbLine
10
-81.034848114926362
20
-75.700105935976069
30
0
11
-93.750767222235837
21
-72.997253913166716
31
0
0
ARC
5
182
100
AcDbEntity
8
0
100
AcDbCircle
10
-93.646811269517514
20
-72.508180135609166
30
0
40
0.49999999999998579
210
0
220
0
230
1
100
AcDbArc
50
167.9999999999967
51
257.99998742852608
0
LINE
5
183
100
AcDbEntity
8
0
100
AcDbLine
10
-94.135885069884395
20
-72.404224290200261
30
0
11
-91.433033269517452
21
-59.688305135609134
31
0
0
CIRCLE
5
184
100
AcDbEntity
8
0
100
AcDbCircle
10
-217.14848241975068
20
13.010318991137202
30
0
40
1.7500000000000071
210
0
220
-0
230
1
0
ARC
5
185
100
AcDbEntity
8
0
100
AcDbCircle
10
-206.48153366427536
20
-7.9243852051366765
30
0
40
0.50000000000001721
210
0
220
0
230
1
100
AcDbArc
50
192.00000000000128
51
282.00000000000256
0
LINE
5
186
100
AcDbEntity
8
0
100
AcDbLine
10
-206.97060746464228
20
-8.0283410505455723
30
0
11
-209.67345946464229
21
4.6875779494544547
31
0
0
ARC
5
187
100
AcDbEntity
8
0
100
AcDbCircle
10
-209.18438566427525
20
4.7915337948632688
30
0
40
0.50000000000004974
210
0
220
0
230
1
100
AcDbArc
50
102.00000000000513
51
191.99999999998943
0
LINE
5
188
100
AcDbEntity
8
0
100
AcDbLine
10
-209.28834150968419
20
5.2806075952302081
30
0
11
-196.57242250968415
21
7.9834595952302267
31
0
0
ARC
5
189
100
AcDbEntity
8
0
100
AcDbCircle
10
-196.46846666427533
20
7.4943857948633319
30
0
40
0.50000022741188388
210
0
220
-0
230
1
100
AcDbArc
50
12.000012571476004
51
101.99999999999345
0
LINE
5
190
100
AcDbEntity
8
0
100
AcDbLine
10
-195.97939266427539
20
7.5983417948633125
30
0
11
-193.27654088671773
21
-5.1175772524183492
31
0
0
ARC
5
191
100
AcDbEntity
8
0
100
AcDbCircle
10
-193.76561466427535
20
-5.2215332051366303
30
0
40
0.50000000000007683
210
0
220
0
230
1
100
AcDbArc
50
-77.999999999995552
51
12.000012571467469
0
LINE
5
192
100
AcDbEntity
8
0
100
AcDbLine
10
-193.66165881886641
20
-5.7106070055035971
30
0
11
-206.37757781886646
21
-8.41345900550359
31
0
0
LWPOLYLINE
5
193
100
AcDbEntity
8
0
100
AcDbPolyline
90
8
70
1
43
0.0
10
-236.9824225096844
20
0.92345959523028154
42
-0.41421356237306867
10
-236.38939286390865
20
0.53834164027223963
10
-233.68654088671798
20
-12.177577252418297
42
-0.41421356237304363
10
-234.07165871155723
20
-12.770606982694197
10
-246.78757781886674
20
-15.473459005503532
42
-0.41421349810830832
10
-247.38060744183318
20
-15.08834115785498
10
-250.0834594418331
20
-2.3724221578549933
42
-0.41421356237307311
10
-249.69834161699393
20
-1.7793924275790665
0
LWPOLYLINE
5
194
100
AcDbEntity
8
0
100
AcDbPolyline
90
8
70
1
43
0.0
10
-160.61174249521889
20
-64.459505122183359
42
-0.41421349810832625
10
-160.01871287225248
20
-64.074387274534871
10
-147.3027937176613
20
-66.777239074901757
42
-0.4142135623731012
10
-146.91767571766138
20
-67.370269074901742
10
-149.62052791729445
20
-80.08618792031065
42
-0.41421356237311324
10
-150.21355756307025
20
-80.471305875268641
10
-162.9294766703797
20
-77.768453852459288
42
-0.4142134981083051
10
-163.31459451802826
20
-77.175424229492847
0
LWPOLYLINE
5
195
100
AcDbEntity
8
0
100
AcDbPolyline
90
8
70
1
43
0.0
10
-130.98681614612477
20
-84.046905737698395
42
-0.41421349810835495
10
-131.57984576909121
20
-84.432023585346911
10
-144.29576487640071
20
-81.729171562537601
42
-0.41421349810834257
10
-144.6808827240493
20
-81.136141939571161
10
-141.97803070123987
20
-68.4202228322617
42
-0.41421349810828767
10
-141.38500107827343
20
-68.035104984613142
10
-128.66908203099189
20
-70.737956762170711
42
-0.41421362663789241
10
-128.28396392368239
20
-71.330986784980055
0
LWPOLYLINE
5
196
100
AcDbEntity
8
0
100
AcDbPolyline
90
8
70
1
43
0.0
10
-96.757796807814344
20
-58.045321296612542
42
-0.41421356237310014
10
-96.372678852856353
20
-58.638350942388328
10
-99.075530852856346
20
-71.354269942388342
42
-0.41421356237311541
10
-99.668560498632118
20
-71.739387897346361
10
-112.38447949863215
20
-69.036535897346369
42
-0.41421356237308887
10
-112.76959745359015
20
-68.443506251570568
10
-110.06674543078077
20
-55.727587144261086
42
-0.41421349810835201
10
-109.47371580781434
20
-55.342469296612563
0
LWPOLYLINE
5
197
100
AcDbEntity
8
0
100
AcDbPolyline
90
8
70
1
43
0.0
10
-214.42327501474864
20
-11.145966002702789
42
-0.41421356237310042
10
-215.01630467145961
20
-10.760848064583469
10
-217.92706867145961
20
2.9332189354165377
42
-0.41421356237312607
10
-217.54195073334029
20
3.5262485921275024
10
-211.67306526545528
20
4.773717918562018
42
-0.41421298938765944
10
-211.08003587348423
20
4.3886007920761028
10
-208.16927113915381
20
-9.3054660518376249
42
-0.414213376316105
10
-208.55438914330975
20
-9.8984953978702723
0
LWPOLYLINE
5
198
100
AcDbEntity
8
0
100
AcDbPolyline
90
8
70
1
43
0.0
10
-118.40695221679505
20
-47.769660939584668
42
-0.41421356237307871
10
-118.99998186257082
20
-48.154778894542687
10
-131.71590067211031
20
-45.451926913911791
42
-0.41421356237312557
10
-132.1010186270683
20
-44.858897268136026
10
-129.3981666464374
20
-32.142978458596531
42
-0.41421356237308232
10
-128.80513700066166
20
-31.757860503638497
10
-116.08921819112219
20
-34.460712484269401
42
-0.41421356237307161
10
-115.70410023616418
20
-35.05374213004518
0
ARC
5
199
100
AcDbEntity
8
0
100
AcDbCircle
10
-158.03780723570605
20
12.895700865495286
30
0
40
0.50000000000000322
210
0
220
-0
230
1
100
AcDbArc
50
77.999999999997115
51
167.99999999999866
0
LINE
5
200
100
AcDbEntity
8
0
100
AcDbLine
10
-157.93385139029715
20
13.384774665862185
30
0
11
-155.60463623570604
21
12.889683865495288
31
0
0
LINE
5
201
100
AcDbEntity
8
0
100
AcDbLine
10
-155.60463623570604
20
12.889683865495288
30
0
11
-145.21793239029711
21
10.681922665862182
31
0
0
ARC
5
202
100
AcDbEntity
8
0
100
AcDbCircle
10
-145.3218882359939
20
10.192848864140922
30
0
40
0.50000000138461831
210
0
220
-0
230
1
100
AcDbArc
50
77.918971000224374
51
77.999999999996504
0
LINE
5
203
100
AcDbEntity
8
0
100
AcDbLine
10
-145.21724083514616
20
10.681775160100173
30
0
11
-142.88871734301554
21
10.186832888304648
31
0
0
ARC
5
204
100
AcDbEntity
8
0
100
AcDbCircle
10
-142.99267323570598
20
9.6977588654952935
30
0
40
0.50000022741194294
210
0
220
0
230
1
100
AcDbArc
50
-12.000012571478415
51
78.000000000005173
0
LINE
5
205
100
AcDbEntity
8
0
100
AcDbLine
10
-142.50359923570599
20
9.5938028654952792
30
0
11
-145.20645123570603
21
-3.1221161345047097
31
0
0
ARC
5
206
100
AcDbEntity
8
0
100
AcDbCircle
10
-145.69552523570599
20
-3.0181601345047233
30
0
40
0.49999999999999134
210
0
220
0
230
1
100
AcDbArc
50
257.99999999999687
51
347.99998742852398
0
LINE
5
207
100
AcDbEntity
8
0
100
AcDbLine
10
-145.79948108111489
20
-3.5072339348716142
30
0
11
-148.128696235706
21
-3.0121441345047106
31
0
0
LINE
5
208
100
AcDbEntity
8
0
100
AcDbLine
10
-148.128696235706
20
-3.0121441345047106
30
0
11
-158.51540018842434
21
-0.80438191206227805
31
0
0
ARC
5
209
100
AcDbEntity
8
0
100
AcDbCircle
10
-158.41144423623976
20
-0.31530813700848281
30
0
40
0.49999999743997392
210
0
220
0
230
1
100
AcDbArc
50
257.91903270353828
51
257.99998742870048
0
LINE
5
210
100
AcDbEntity
8
0
100
AcDbLine
10
-158.51609110972441
20
-0.80423454180766907
30
0
11
-160.84461508111485
21
-0.30929193487160511
31
0
0
ARC
5
211
100
AcDbEntity
8
0
100
AcDbCircle
10
-160.740659235706
20
0.1797818654952843
30
0
40
0.49999999999998113
210
0
220
0
230
1
100
AcDbArc
50
167.99999999999878
51
258.00000000000324
0
LINE
5
212
100
AcDbEntity
8
0
100
AcDbLine
10
-161.2297330360729
20
0.28373771090417349
30
0
11
-158.52688103607295
21
12.999656710904176
31
0
0
LWPOLYLINE
5
213
100
AcDbEntity
8
0
100
AcDbPolyline
90
8
70
1
43
0.0
10
-213.54558025027757
20
-15.10414884024714
42
-0.41421356237309381
10
-212.95255060450177
20
-15.489266795205179
10
-210.24969862387096
20
-28.205185604744685
42
-0.41421356237301238
10
-210.63481657882892
20
-28.79821525052045
10
-223.35073538836835
20
-31.501067231151389
42
-0.41421356237302293
10
-223.94376503414421
20
-31.115949276193273
10
-226.64661701477513
20
-18.400030466653799
42
-0.41421356237309404
10
-226.26149905981706
20
-17.807000820878041
0
LWPOLYLINE
5
214
100
AcDbEntity
8
0
100
AcDbPolyline
90
8
70
1
43
0.0
10
-264.57500000000005
20
-22.324999999999964
10
-264.57500000000005
20
-35.32499999999996
42
0.41421356237301177
10
-264.07500000000005
20
-35.824999999999989
10
-251.07500000000002
20
-35.824999999999967
42
0.41421356237304041
10
-250.57500000000005
20
-35.324999999999974
10
-250.57500000000005
20
-22.324999999999964
42
0.41421356237318346
10
-251.07500000000005
20
-21.824999999999967
10
-264.07500000000005
20
-21.824999999999939
42
0.4142135623729884
0
LWPOLYLINE
5
215
100
AcDbEntity
8
0
100
AcDbPolyline
90
8
70
1
43
0.0
10
-191.61598682989194
20
-24.244467894666361
10
-194.31883881052275
20
-11.528549085126876
42
0.41421356237308699
10
-194.91186845629855
20
-11.143431130168857
10
-207.62778726583804
20
-13.846283110799714
42
0.41421356237307022
10
-208.01290522079611
20
-14.439312756575486
10
-205.31005324016519
20
-27.155231566114981
42
0.41421356237312701
10
-204.71702359438947
20
-27.540349521073018
10
-192.00110478485001
20
-24.837497540442147
42
0.41421356237307161
0
LWPOLYLINE
5
216
100
AcDbEntity
8
0
100
AcDbPolyline
90
8
70
1
43
0.0
10
-265.94500000000005
20
-73.424999999999983
10
-265.94500000000005
20
-60.424999999999983
42
0.4142135623730846
10
-266.44500000000011
20
-59.924999999999983
10
-279.44500000000005
20
-59.92499999999999
42
0.41421356237300661
10
-279.94500000000005
20
-60.424999999999983
10
-279.94500000000005
20
-73.424999999999983
42
0.41421356237316265
10
-279.44500000000005
20
-73.924999999999955
10
-266.44500000000011
20
-73.924999999999969
42
0.41421356237304302
0
LWPOLYLINE
5
217
100
AcDbEntity
8
0
100
AcDbPolyline
90
8
70
1
43
0.0
10
-285.49500000000012
20
-59.92499999999999
10
-298.49500000000006
20
-59.924999999999983
42
0.41421356237298057
10
-298.99500000000006
20
-60.424999999999983
10
-298.995
20
-73.424999999999955
42
0.4142135623730378
10
-298.49500000000006
20
-73.924999999999955
10
-285.49500000000012
20
-73.924999999999955
42
0.41421356237306384
10
-284.99500000000012
20
-73.424999999999983
10
-284.99500000000012
20
-60.424999999999983
42
0.41421356237316787
0
LWPOLYLINE
5
218
100
AcDbEntity
8
0
100
AcDbPolyline
90
8
70
1
43
0.0
10
-81.139528628836985
20
-55.691096359741337
42
-0.41421356237313395
10
-81.732558274612785
20
-56.076214314699364
10
-94.448477084152316
20
-53.373362334068482
42
-0.41421356237310009
10
-94.833595039110293
20
-52.78033268829266
10
-92.130743058479467
20
-40.064413878753193
42
-0.41421356237313633
10
-91.537713412703653
20
-39.679295923795152
10
-78.821794603164193
20
-42.382147904426063
42
-0.41421356237308998
10
-78.436676648206159
20
-42.975177550201849
0
LWPOLYLINE
5
219
100
AcDbEntity
8
0
100
AcDbPolyline
90
8
70
1
43
0.0
10
-275.48500000000001
20
-40.874999999999972
42
-0.41421356237314705
10
-274.98500000000007
20
-41.374999999999957
10
-274.98500000000001
20
-54.374999999999972
42
-0.414213562373069
10
-275.48500000000007
20
-54.874999999999972
10
-288.48500000000013
20
-54.874999999999964
42
-0.41421356237304302
10
-288.98500000000007
20
-54.374999999999972
10
-288.98500000000007
20
-41.374999999999957
42
-0.41421356237304818
10
-288.48500000000013
20
-40.87499999999995
0
LWPOLYLINE
5
220
100
AcDbEntity
8
0
100
AcDbPolyline
90
8
70
1
43
0.0
10
-102.81164458405439
20
-17.807359545329572
42
-0.41421356237313639
10
-102.42652662909634
20
-18.40038919110534
10
-105.12937860972724
20
-31.116308000644828
42
-0.41421356237304052
10
-105.72240825550303
20
-31.501425955602862
10
-118.43832706504246
20
-28.798573974971976
42
-0.41421356237310269
10
-118.82344502000049
20
-28.205544329196218
10
-116.12059303936965
20
-15.489625519656718
42
-0.41421356237310453
10
-115.52756339359384
20
-15.104507564698684
0
LWPOLYLINE
5
221
100
AcDbEntity
8
0
100
AcDbPolyline
90
8
70
1
43
0.0
10
-20.345000000000045
20
-76.064999999999969
42
-0.41421356237308982
10
-20.845000000000038
20
-75.564999999999969
10
-20.845000000000034
20
-62.564999999999991
42
-0.4142135623730846
10
-20.345000000000045
20
-62.064999999999998
10
-7.3450000000000344
20
-62.064999999999998
42
-0.4142135623730846
10
-6.8450000000000344
20
-62.564999999999998
10
-6.845000000000045
20
-75.564999999999969
42
-0.41421356237310153
10
-7.3450000000000371
20
-76.064999999999969
0
LWPOLYLINE
5
222
100
AcDbEntity
8
0
100
AcDbPolyline
90
8
70
1
43
0.0
10
-40.395000000000032
20
-3.2749999999999946
10
-40.395000000000032
20
-16.274999999999995
42
0.41421356237310936
10
-39.895000000000024
20
-16.774999999999995
10
-26.895000000000024
20
-16.774999999999991
42
0.41421356237309631
10
-26.395000000000024
20
-16.274999999999995
10
-26.395000000000024
20
-3.2749999999999968
42
0.4142135623730957
10
-26.895000000000024
20
-2.7749999999999968
10
-39.895000000000024
20
-2.7749999999999932
42
0.41421356237310902
0
LWPOLYLINE
5
223
100
AcDbEntity
8
0
100
AcDbPolyline
90
8
70
1
43
0.0
10
-47.525000000000041
20
-92.97499999999998
10
-34.525000000000034
20
-92.975000000000051
42
0.41421356237307683
10
-34.025000000000034
20
-92.475000000000023
10
-34.025000000000034
20
-79.474999999999994
42
0.41421356237307422
10
-34.525000000000034
20
-78.975000000000023
10
-47.525000000000041
20
-78.975000000000009
42
0.41421356237309503
10
-48.02500000000002
20
-79.474999999999994
10
-48.025000000000034
20
-92.475000000000023
42
0.41421356237312101
0
LWPOLYLINE
5
224
100
AcDbEntity
8
0
100
AcDbPolyline
90
8
70
1
43
0.0
10
-33.535000000000025
20
-35.324999999999989
10
-33.535000000000025
20
-22.324999999999985
42
0.41421356237309764
10
-34.035000000000025
20
-21.824999999999989
10
-47.035000000000025
20
-21.824999999999982
42
0.41421356237311063
10
-47.535000000000018
20
-22.324999999999982
10
-47.535000000000025
20
-35.324999999999989
42
0.41421356237311063
10
-47.035000000000046
20
-35.824999999999989
10
-34.035000000000025
20
-35.824999999999989
42
0.41421356237310025
0
LWPOLYLINE
5
225
100
AcDbEntity
8
0
100
AcDbPolyline
90
8
70
1
43
0.0
10
-64.485000000000028
20
-35.324999999999989
42
-0.41421356237307944
10
-64.985000000000042
20
-35.824999999999989
10
-77.985000000000014
20
-35.824999999999989
42
-0.41421356237309503
10
-78.485000000000014
20
-35.324999999999989
10
-78.485000000000014
20
-22.324999999999978
42
-0.41421356237309503
10
-77.985000000000014
20
-21.824999999999978
10
-64.985000000000014
20
-21.824999999999982
42
-0.41421356237309503
10
-64.485000000000014
20
-22.324999999999982
0
LWPOLYLINE
5
226
100
AcDbEntity
8
0
100
AcDbPolyline
90
8
70
1
43
0.0
10
-175.07540575116207
20
-79.155423849083704
42
-0.41421356237307361
10
-175.46052370612014
20
-79.74845349485949
10
-188.17644251565955
20
-82.451305475490386
42
-0.4142135623730645
10
-188.76947216143543
20
-82.066187520532338
10
-191.47232414206627
20
-69.350268710992879
42
-0.41421356237312046
10
-191.08720618710817
20
-68.757239065217121
10
-178.37128737756871
20
-66.054387084586239
42
-0.41421356237307982
10
-177.77825773179291
20
-66.439505039544272
0
LWPOLYLINE
5
227
100
AcDbEntity
8
0
100
AcDbPolyline
90
8
70
1
43
0.0
10
-266.67500000000007
20
-81.614999999999966
42
-0.41421356237295975
10
-266.17500000000007
20
-81.114999999999995
10
-253.1750000000001
20
-81.115000000000038
42
-0.41421356237307422
10
-252.67500000000013
20
-81.614999999999966
10
-252.6750000000001
20
-94.614999999999995
42
-0.41421356237313667
10
-253.1750000000001
20
-95.114999999999995
10
-266.17500000000007
20
-95.115000000000009
42
-0.41421356237298057
10
-266.67500000000007
20
-94.614999999999995
0
LWPOLYLINE
5
228
100
AcDbEntity
8
0
100
AcDbPolyline
90
11
70
1
43
0.0
10
-327.78300000000007
20
-21.32499999999995
42
-0.41421356237327711
10
-327.28300000000013
20
-20.824999999999953
10
-321.28300000000013
20
-20.824999999999836
42
-0.41421356237297013
10
-320.78300000000007
20
-21.32499999999995
10
-320.78300000000013
20
-35.32499999999996
42
-0.41421356237295975
10
-321.28300000000013
20
-35.82499999999996
10
-335.51375000000007
20
-35.824999999999974
42
-0.41421356237308721
10
-336.01374999999996
20
-35.324999999999946
10
-336.01374999999996
20
-22.32499999999995
42
-0.4142135623730846
10
-335.51375000000007
20
-21.824999999999953
10
-327.78300000000007
20
-21.824999999999953
0
LWPOLYLINE
5
229
100
AcDbEntity
8
0
100
AcDbPolyline
90
8
70
1
43
0.0
10
-271.30500000000006
20
-92.475000000000009
42
-0.41421356237301177
10
-271.80500000000001
20
-92.974999999999994
10
-284.80500000000006
20
-92.974999999999994
42
-0.41421356237310542
10
-285.30500000000006
20
-92.475000000000009
10
-285.30500000000006
20
-79.474999999999966
42
-0.41421356237313667
10
-284.80500000000001
20
-78.974999999999966
10
-271.80500000000001
20
-78.975000000000009
42
-0.41421356237315227
10
-271.30500000000001
20
-79.474999999999966
0
LWPOLYLINE
5
230
100
AcDbEntity
8
0
100
AcDbPolyline
90
8
70
1
43
0.0
10
-303.99700000000007
20
-55.875000000000014
42
-0.41421356237304818
10
-304.49700000000007
20
-55.374999999999979
10
-304.49700000000007
20
-41.374999999999957
42
-0.41421356237294937
10
-303.99700000000007
20
-40.874999999999957
10
-297.99700000000007
20
-40.874999999999957
42
-0.41421356237313145
10
-297.49700000000007
20
-41.374999999999957
10
-297.49700000000007
20
-55.374999999999979
42
-0.41421356237299617
10
-297.99700000000007
20
-55.874999999999957
0
CIRCLE
5
231
100
AcDbEntity
8
0
100
AcDbCircle
10
-18.005000000000052
20
3.0049999999999488
30
0
40
1.7500000000000049
210
0
220
-0
230
1
0
LWPOLYLINE
5
232
100
AcDbEntity
8
0
100
AcDbPolyline
90
8
70
1
43
0.0
10
-97.455506397143168
20
-38.421430194347721
42
-0.41421356237312157
10
-97.070388442185148
20
-39.014459840123479
10
-99.773240422816087
20
-51.730378649662967
42
-0.41421356237312773
10
-100.36627006859186
20
-52.115496604621029
10
-113.08218887813126
20
-49.412644623990154
42
-0.41421356237314305
10
-113.46730683308931
20
-48.819614978214354
10
-110.76445485245848
20
-36.103696168674873
42
-0.41421356237313373
10
-110.17142520668267
20
-35.718578213716839
0
CIRCLE
5
233
100
AcDbEntity
8
0
100
AcDbCircle
10
-18.005000000000063
20
-100.89499999999994
30
0
40
1.7500000000000004
210
0
220
-0
230
1
0
LWPOLYLINE
5
234
100
AcDbEntity
8
0
100
AcDbPolyline
90
8
70
1
43
0.0
10
-142.39680219768525
20
-23.194872580488163
10
-139.69395021705435
20
-10.478953770948682
42
0.41421356237304591
10
-140.0790681720124
20
-9.8859241251729166
10
-152.79498698155186
20
-7.1830721445420354
42
0.41421356237305812
10
-153.38801662732766
20
-7.5681900995000539
10
-156.0908686079585
20
-20.284108909039546
42
0.41421356237308121
10
-155.70575065300045
20
-20.877138554815325
10
-142.98983184346099
20
-23.579990535446189
42
0.41421356237306795
0
CIRCLE
5
235
100
AcDbEntity
8
0
100
AcDbCircle
10
-208.95804833616748
20
-93.037323964248756
30
0
40
1.7500000000000071
210
0
220
-0
230
1
0
LWPOLYLINE
5
236
100
AcDbEntity
8
0
100
AcDbPolyline
90
8
70
1
43
0.0
10
-328.37299999999999
20
-41.37499999999995
42
-0.41421356237338641
10
-327.8730000000001
20
-40.874999999999943
10
-321.87300000000005
20
-40.874999999999908
42
-0.41421356237301699
10
-321.37300000000005
20
-41.374999999999957
10
-321.3730000000001
20
-55.374999999999979
42
-0.41421356237311063
10
-321.87300000000005
20
-55.874999999999957
10
-327.87300000000016
20
-55.87499999999995
42
-0.41421356237293894
10
-328.37299999999999
20
-55.374999999999957
0
LWPOLYLINE
5
237
100
AcDbEntity
8
0
100
AcDbPolyline
90
8
70
1
43
0.0
10
-186.08331180041046
20
-23.57963181099479
42
-0.41421356237301044
10
-186.67634144618614
20
-23.194513856036686
10
-189.37919342681707
20
-10.47859504649718
42
-0.41421356237306883
10
-188.99407547185899
20
-9.8855654007214007
10
-176.2781566623195
20
-7.1827134200905496
42
-0.41421356237310308
10
-175.68512701654373
20
-7.5678313750485682
10
-172.98227503591289
20
-20.283750184588051
42
-0.4142135623731007
10
-173.36739299087088
20
-20.876779830363823
0
LWPOLYLINE
5
238
100
AcDbEntity
8
0
100
AcDbPolyline
90
8
70
1
43
0.0
10
-255.93500000000012
20
-54.374999999999972
10
-255.93500000000012
20
-41.374999999999957
42
0.41421356237314183
10
-256.43500000000012
20
-40.874999999999943
10
-269.43500000000017
20
-40.874999999999957
42
0.41421356237291812
10
-269.93500000000017
20
-41.374999999999957
10
-269.93500000000017
20
-54.374999999999972
42
0.41421356237307422
10
-269.43500000000017
20
-54.874999999999972
10
-256.43500000000012
20
-54.874999999999972
42
0.41421356237313667
0
LWPOLYLINE
5
239
100
AcDbEntity
8
0
100
AcDbPolyline
90
8
70
1
43
0.0
10
-99.804615271063497
20
-32.7592916850503
42
-0.41421356237308432
10
-100.1897332260215
20
-32.166262039274528
10
-97.486881245390592
20
-19.45034322973504
42
-0.41421356237307788
10
-96.89385159961482
20
-19.06522527477701
10
-84.177932790075374
20
-21.768077255407917
42
-0.41421356237308693
10
-83.792814835117326
20
-22.361106901183692
10
-86.495666815748237
20
-35.077025710723177
42
-0.41421356237316553
10
-87.088696461523995
20
-35.462143665681211
0
LWPOLYLINE
5
240
100
AcDbEntity
8
0
100
AcDbPolyline
90
8
70
1
43
0.0
10
-234.23954860476113
20
-52.779973963841122
10
-236.94240058539205
20
-40.064055154301641
42
0.41421356237319096
10
-237.53543023116777
20
-39.678937199343622
10
-250.25134904070717
20
-42.38178917997449
42
0.41421356237309825
10
-250.63646699566533
20
-42.974818825750276
10
-247.93361501503443
20
-55.690737635289757
42
0.41421356237316848
10
-247.34058536925855
20
-56.075855590247798
10
-234.6246665597192
20
-53.373003609616887
42
0.4142135623730468
0
LWPOLYLINE
5
241
100
AcDbEntity
8
0
100
AcDbPolyline
90
8
70
1
43
0.0
10
-215.60583681078214
20
-48.819256253762795
42
-0.41421356237304091
10
-215.99095476574013
20
-49.412285899538581
10
-228.7068735752797
20
-52.115137880169456
42
-0.41421356237305107
10
-229.29990322105544
20
-51.730019925211437
10
-232.00275520168643
20
-39.014101115671977
42
-0.41421356237315177
10
-231.61763724672838
20
-38.421071469896205
10
-218.90171843718875
20
-35.718219489265294
42
-0.41421356237306595
10
-218.30868879141292
20
-36.103337444223328
0
LWPOLYLINE
5
242
100
AcDbEntity
8
0
100
AcDbPolyline
90
8
70
1
43
0.0
10
-11.005000000000056
20
-94.614999999999995
42
-0.41421356237307422
10
-11.505000000000063
20
-95.114999999999966
10
-24.50500000000007
20
-95.114999999999981
42
-0.41421356237308721
10
-25.005000000000074
20
-94.614999999999995
10
-25.005000000000074
20
-81.615000000000009
42
-0.41421356237309243
10
-24.50500000000007
20
-81.114999999999995
10
-11.505000000000061
20
-81.114999999999995
42
-0.41421356237310542
10
-11.00500000000007
20
-81.615000000000009
0
LWPOLYLINE
5
243
100
AcDbEntity
8
0
100
AcDbPolyline
90
8
70
1
43
0.0
10
-241.9844471823474
20
-35.461784941229666
10
-229.26852837280796
20
-32.758932960598756
42
0.41421356237307
10
-228.88341041785003
20
-32.165903314822984
10
-231.58626239848076
20
-19.449984505283492
42
0.4142135623730438
10
-232.17929204425658
20
-19.064866550325455
10
-244.89521085379613
20
-21.767718530956337
42
0.41421356237302098
10
-245.28032880875415
20
-22.360748176732145
10
-242.5774768281232
20
-35.076666986271618
42
0.41421356237307794
0
LWPOLYLINE
5
244
100
AcDbEntity
8
0
100
AcDbPolyline
90
8
70
1
43
0.0
10
-115.39150908421061
20
-54.084603280792209
42
-0.4142134981083041
10
-115.00639123656205
20
-54.677632903758635
10
-117.70924323656206
20
-67.393551903758635
42
-0.41421356237310014
10
-118.30227288233785
20
-67.778669858716668
10
-131.01819198964731
20
-65.075817835907344
42
-0.41421349810835606
10
-131.40330983729586
20
-64.482788212940875
10
-128.70045803692898
20
-51.766869058349755
42
-0.41421356237312662
10
-128.10742803692892
20
-51.381751058349778
0
LWPOLYLINE
5
245
100
AcDbEntity
8
0
100
AcDbPolyline
90
8
70
1
43
0.0
10
-270.125
20
-21.824999999999935
42
-0.41421356237312623
10
-269.62500000000006
20
-22.32499999999996
10
-269.62500000000006
20
-35.32499999999996
42
-0.41421356237313928
10
-270.12500000000006
20
-35.82499999999996
10
-283.12500000000006
20
-35.824999999999953
42
-0.41421356237312623
10
-283.62500000000006
20
-35.32499999999996
10
-283.625
20
-22.324999999999953
42
-0.414213562373004
10
-283.12500000000006
20
-21.824999999999953
0
ARC
5
246
100
AcDbEntity
8
0
100
AcDbCircle
10
-136.83202942063463
20
-63.328878019720122
30
0
40
0.49999999999995237
210
0
220
0
230
1
100
AcDbArc
50
257.99999999999926
51
347.99998742852978
0
LINE
5
247
100
AcDbEntity
8
0
100
AcDbLine
10
-136.9359852660435
20
-63.817951820086975
30
0
11
-149.65190437335298
21
-61.11509979727763
31
0
0
ARC
5
248
100
AcDbEntity
8
0
100
AcDbCircle
10
-149.54794842063467
20
-60.626026019720086
30
0
40
0.49999999999998579
210
0
220
0
230
1
100
AcDbArc
50
167.99999999999545
51
257.9999874285275
0
LINE
5
249
100
AcDbEntity
8
0
100
AcDbLine
10
-150.03702222100156
20
-60.522070174311168
30
0
11
-147.33417042063468
21
-47.806151019720048
31
0
0
ARC
5
250
100
AcDbEntity
8
0
100
AcDbCircle
10
-146.84509642063466
20
-47.910107019720051
30
0
40
0.49999999999998845
210
0
220
-0
230
1
100
AcDbArc
50
78.00000000000675
51
167.99998742852344
0
LINE
5
251
100
AcDbEntity
8
0
100
AcDbLine
10
-146.74114057522584
20
-47.421033219353149
30
0
11
-134.02522157522577
21
-50.12388521935317
31
0
0
ARC
5
252
100
AcDbEntity
8
0
100
AcDbCircle
10
-134.12917742063468
20
-50.612959019720066
30
0
40
0.50000000000001321
210
0
220
0
230
1
100
AcDbArc
50
-11.999999999999762
51
77.99999999999703
0
LINE
5
253
100
AcDbEntity
8
0
100
AcDbLine
10
-133.64010362026778
20
-50.716914865128942
30
0
11
-136.34295564307709
21
-63.432833972438409
31
0
0
ARC
5
254
100
AcDbEntity
8
0
100
AcDbCircle
10
-244.18153366427575
20
-93.844385205136689
30
0
40
0.4999999999999637
210
0
220
0
230
1
100
AcDbArc
50
191.99999999999247
51
282.00001257148284
0
LINE
5
255
100
AcDbEntity
8
0
100
AcDbLine
10
-244.67060746464261
20
-93.948341050545494
30
0
11
-247.37345966427566
21
-81.232422205136629
31
0
0
ARC
5
256
100
AcDbEntity
8
0
100
AcDbCircle
10
-246.88438566427567
20
-81.128466205136647
30
0
40
0.5000000000000363
210
0
220
0
230
1
100
AcDbArc
50
102.00001257148082
51
192.00001257147483
0
LINE
5
257
100
AcDbEntity
8
0
100
AcDbLine
10
-246.98834161699406
20
-80.639392427579054
30
0
11
-234.27242250968453
21
-77.936540404769701
31
0
0
ARC
5
258
100
AcDbEntity
8
0
100
AcDbCircle
10
-234.16846666427563
20
-78.425614205136625
30
0
40
0.50000022741192796
210
0
220
-0
230
1
100
AcDbArc
50
12.000012571480287
51
102.00000000000232
0
LINE
5
259
100
AcDbEntity
8
0
100
AcDbLine
10
-233.67939266427567
20
-78.3216582051366
30
0
11
-230.97654088671814
21
-91.037577252418274
31
0
0
ARC
5
260
100
AcDbEntity
8
0
100
AcDbCircle
10
-231.46561466427579
20
-91.141533205136582
30
0
40
0.5000000000000453
210
0
220
0
230
1
100
AcDbArc
50
-77.999999999991687
51
12.000012571469886
0
LINE
5
261
100
AcDbEntity
8
0
100
AcDbLine
10
-231.36165881886683
20
-91.630607005503521
30
0
11
-244.07757771155735
21
-94.333458982694196
31
0
0
LWPOLYLINE
5
262
100
AcDbEntity
8
0
100
AcDbPolyline
90
8
70
1
43
0.0
10
-188.35297935823004
20
-62.502070910143885
42
-0.41421356237310009
10
-188.73809731318812
20
-63.09510055591965
10
-201.45401612272761
20
-65.797952536550625
42
-0.41421356237315532
10
-202.04704576850347
20
-65.412834581592506
10
-204.74989774913428
20
-52.696915772053103
42
-0.41421356237315132
10
-204.36477979417617
20
-52.10388612627731
10
-191.6488609846368
20
-49.401034145646392
42
-0.41421356237311358
10
-191.05583133886091
20
-49.786152100604454
0
LWPOLYLINE
5
263
100
AcDbEntity
8
0
100
AcDbPolyline
90
8
70
1
43
0.0
10
-134.72292998510119
20
-30.499994774191066
10
-147.43884879464071
20
-27.79714279356018
42
0.41421356237312013
10
-148.03187844041645
20
-28.18226074851821
10
-150.73473042104732
20
-40.898179558057699
42
0.41421356237308998
10
-150.34961246608924
20
-41.491209203833478
10
-137.63369365654984
20
-44.194061184464374
42
0.41421356237312773
10
-137.04066401077404
20
-43.808943229506326
10
-134.3378120301432
20
-31.093024419966827
42
0.41421356237309553
0
LWPOLYLINE
5
264
100
AcDbEntity
8
0
100
AcDbPolyline
90
72
70
1
43
0.0
10
-15.125000000000062
20
-101.73500000000003
42
-0.74999999999998379
10
-20.885000000000076
20
-101.73499999999999
10
-21.670458333333222
20
-99.042000000000527
42
0.33333333333334125
10
-23.206458333333231
20
-97.890000000000512
10
-81.443891889759371
20
-97.890000000000441
42
-0.052407779283092822
10
-81.776550595067746
20
-97.85503616117451
10
-122.17595651125791
20
-89.267877346117714
42
0.33333333333333387
10
-123.91790549380708
20
-90.075351025066993
10
-125.37032934939107
20
-92.777288972278583
42
-0.75000000000000033
10
-131.0044595296178
20
-91.579717633168315
10
-131.23233757501032
20
-88.520620491317572
42
0.33333333333333509
10
-132.49525802191539
20
-87.074442098176149
10
-163.5941885973989
20
-80.464160343436717
42
0.10510423526564412
10
-164.25950600801571
20
-80.464160343436717
10
-204.49502431061211
20
-89.016483770846619
42
0.33333333333332893
10
-205.75794475751732
20
-90.462662163988085
10
-205.96633742576722
20
-93.260182279309987
42
-0.75000000000000344
10
-211.60046760599391
20
-94.457753618420298
10
-212.92869772212285
20
-91.986852758729455
42
0.33333333333333326
10
-214.67064670467198
20
-91.179379079780148
10
-246.07714401035619
20
-97.85503616117424
42
-0.052407779282987281
10
-246.4098027156646
20
-97.890000000000143
10
-315.58229166666678
20
-97.890000000000015
42
0.33333333333334514
10
-317.11829166666683
20
-99.04200000000003
10
-317.90374999999995
20
-101.73500000000004
42
-0.74999999999996869
10
-323.66375000000016
20
-101.73499999999997
10
-324.4492083333335
20
-99.041999999999973
42
0.33333333333331705
10
-325.9852083333335
20
-97.890000000000015
10
-337.18875000000003
20
-97.890000000000015
42
-0.41421356237313406
10
-338.78874999999999
20
-96.289999999999978
10
-338.78875000000016
20
-1.5999999999999663
42
-0.41421356237315887
10
-337.18875000000003
20
6.3560268159790212e-14
10
-325.9852083333335
20
4.9682480351975755e-14
42
0.33333333333337323
10
-324.44920833333327
20
1.1520000000001174
10
-323.66375000000028
20
3.8449999999999909
42
-0.74999999999999289
10
-317.90375000000006
20
3.8450000000001183
10
-317.11829166666666
20
1.152000000000035
42
0.3333333333333186
10
-315.58229166666666
20
3.9412917374193057e-14
10
-264.07201926040415
20
3.1918911957973251e-14
42
0.052407779283015571
10
-263.73936055509569
20
0.034963838825943228
10
-221.61150365526694
20
8.9895162519801541
42
0.33333333333335063
10
-220.34858320836184
20
10.435694645121607
10
-220.14019333015099
20
13.233177306198336
42
-0.75000000000000278
10
-214.5060631499243
20
14.430748645308821
10
-213.17785081663683
20
11.959880866962507
42
0.33333333333333154
10
-211.43590183408764
20
11.152407188013235
10
-169.47759880908933
20
20.070919812515665
42
-0.10510423526569254
10
-168.81228139847258
20
20.070919812515665
10
-126.85408588203272
20
11.152430039662596
42
0.33333333333334308
10
-125.11213689948352
20
11.959903718611844
10
-123.7839368500758
20
14.430748645308629
42
-0.74999999999999545
10
-118.14980666984903
20
13.233177306198513
10
-117.94141871891745
20
10.435720517445997
42
0.33333333333333154
10
-116.67849827201238
20
8.9895421243045721
10
-74.550519652467926
20
0.034963838825921301
42
0.052407779283034986
10
-74.217860947159494
20
9.775166787129308e-15
10
-23.206458333333366
20
3.6082248300317588e-15
42
0.33333333333333548
10
-21.670458333333364
20
1.1520000000000141
10
-20.88500000000009
20
3.8449999999998905
42
-0.749999999999997
10
-15.12500000000006
20
3.8450000000000384
10
-14.339541666666706
20
1.1519999999999977
42
0.33333333333333293
10
-12.803541666666698
20
3.0531133177191805e-15
10
-6.8450000000000699
20
-2.7755575615628914e-16
42
-0.41421356237309398
10
-5.245000000000072
20
-1.5999999999999992
10
-5.2450000000000765
20
-12.644999999999982
42
0.41421356237309537
10
-3.6450000000000742
20
-14.244999999999983
10
-1.6000000000000234
20
-14.244999999999983
42
-0.41421356237309553
10
-1.3877787807814457e-14
20
-15.844999999999985
10
-5.1070259132757201e-14
20
-96.290000000000589
42
-0.41421356237310403
10
-1.6000000000000303
20
-97.890000000000583
10
-12.80354166666686
20
-97.890000000000555
42
0.33333333333333448
10
-14.339541666666884
20
-99.042000000000527
0
ENDSEC
0
SECTION
2
OBJECTS
0
DICTIONARY
5
C
100
AcDbDictionary
3
ACAD_GROUP
350
D
3
ACAD_MLINESTYLE
350
17
0
DICTIONARY
5
D
100
AcDbDictionary
0
DICTIONARY
5
1A
330
C
100
AcDbDictionary
0
DICTIONARY
5
17
100
AcDbDictionary
0
ENDSEC
0
EOF
